# xmcd
#
# Track frame offsets: 
#        150
#        14091
#        57352
#        83545
#        107271
#        124782
#        136870
#        150723
#        175874
#        203406
#        225839
#        238662
#        251909
#        276623
#        295824
#        310111
#        315887
#        320643
#        325124
#        335807
#
# Disc length: 4656 seconds
#
# Revision: 0
# Processed by: cddbd v1.5.2PL0 Copyright (c) Steve Scherf et al.
# Submitted via: ExactAudioCopy v0.95b4
#
DISCID=12122e14
DTITLE=Van Morrison - It's All Right
DYEAR=2007
DGENRE=Blues
TTITLE0=Brown Eyed Girl
TTITLE1=T.B. Sheets
TTITLE2=He Ain't Give You None
TTITLE3=Madame George
TTITLE4=Spanish Rose
TTITLE5=Midnight Special
TTITLE6=Ro Ro Rosey
TTITLE7=Who Drove The Red Sports Car
TTITLE8=Beside You
TTITLE9=It's All Right
TTITLE10=Send Your Mind
TTITLE11=The Smile You Smile
TTITLE12=The Back Room
TTITLE13=Joe Harper Saturday Morning
TTITLE14=Chick-A-Boom
TTITLE15=Twist And Shake
TTITLE16=Freaky If You Got This Far
TTITLE17=Savoy Hollywood
TTITLE18=I Love You (The Smile You Smile)
TTITLE19=Goodbye Baby (Baby Goodbye)
EXTD=
EXTT0=
EXTT1=
EXTT2=
EXTT3=
EXTT4=
EXTT5=
EXTT6=
EXTT7=
EXTT8=
EXTT9=
EXTT10=
EXTT11=
EXTT12=
EXTT13=
EXTT14=
EXTT15=
EXTT16=
EXTT17=
EXTT18=
EXTT19=
PLAYORDER=
